<svg width="29" height="24" viewBox="0 0 29 24" fill="none" xmlns="http://www.w3.org/2000/svg">
<path d="M14.2464 0C14.8829 0 15.4934 0.252856 15.9434 0.702944C16.3935 1.15303 16.6464 1.76348 16.6464 2.4C16.6464 3.03652 16.3935 3.64697 15.9434 4.09706C15.4934 4.54714 14.8829 4.8 14.2464 4.8C13.6099 4.8 12.9994 4.54714 12.5493 4.09706C12.0992 3.64697 11.8464 3.03652 11.8464 2.4C11.8464 1.76348 12.0992 1.15303 12.5493 0.702944C12.9994 0.252856 13.6099 0 14.2464 0ZM12.4464 6H16.0464C16.6829 6 17.2934 6.25286 17.7434 6.70294C18.1935 7.15303 18.4464 7.76348 18.4464 8.4V15H16.6464V24H11.8464V15H10.0464V8.4C10.0464 7.76348 10.2992 7.15303 10.7493 6.70294C11.1994 6.25286 11.8099 6 12.4464 6Z" fill="#4A4A4A"/>
<path d="M4.2 0C4.83652 0 5.44697 0.252856 5.89706 0.702944C6.34714 1.15303 6.6 1.76348 6.6 2.4C6.6 3.03652 6.34714 3.64697 5.89706 4.09706C5.44697 4.54714 4.83652 4.8 4.2 4.8C3.56348 4.8 2.95303 4.54714 2.50294 4.09706C2.05286 3.64697 1.8 3.03652 1.8 2.4C1.8 1.76348 2.05286 1.15303 2.50294 0.702944C2.95303 0.252856 3.56348 0 4.2 0ZM2.4 6H6C6.63652 6 7.24697 6.25286 7.69706 6.70294C8.14714 7.15303 8.4 7.76348 8.4 8.4V15H6.6V24H1.8V15H0V8.4C0 7.76348 0.252857 7.15303 0.702944 6.70294C1.15303 6.25286 1.76348 6 2.4 6Z" fill="#4A4A4A"/>
<path d="M24.2933 0C24.9298 0 25.5402 0.252856 25.9903 0.702944C26.4404 1.15303 26.6933 1.76348 26.6933 2.4C26.6933 3.03652 26.4404 3.64697 25.9903 4.09706C25.5402 4.54714 24.9298 4.8 24.2933 4.8C23.6567 4.8 23.0463 4.54714 22.5962 4.09706C22.1461 3.64697 21.8933 3.03652 21.8933 2.4C21.8933 1.76348 22.1461 1.15303 22.5962 0.702944C23.0463 0.252856 23.6567 0 24.2933 0ZM22.4933 6H26.0933C26.7298 6 27.3402 6.25286 27.7903 6.70294C28.2404 7.15303 28.4933 7.76348 28.4933 8.4V15H26.6933V24H21.8933V15H20.0933V8.4C20.0933 7.76348 20.3461 7.15303 20.7962 6.70294C21.2463 6.25286 21.8567 6 22.4933 6Z" fill="#4A4A4A"/>
</svg>
