<svg width="22" height="28" viewBox="0 0 22 28" fill="none" xmlns="http://www.w3.org/2000/svg">
<path d="M0 0V28H21.6V0H0ZM19.8 26.25H12.6V21H9V26.25H1.8V1.75H19.8V26.25Z" fill="#4A4A4A"/>
<path d="M4 16.0005H7.2V19.2005H4V16.0005Z" fill="#4A4A4A"/>
<path d="M9.35986 16.0005H12.5599V19.2005H9.35986V16.0005Z" fill="#4A4A4A"/>
<path d="M14.3999 16.0005H17.5999V19.2005H14.3999V16.0005Z" fill="#4A4A4A"/>
<path d="M4 10.3999H7.2V14.3999H4V10.3999Z" fill="#4A4A4A"/>
<path d="M9.35986 10.3999H12.5599V14.3999H9.35986V10.3999Z" fill="#4A4A4A"/>
<path d="M14.3999 10.3999H17.5999V14.3999H14.3999V10.3999Z" fill="#4A4A4A"/>
<path d="M4 4.7998H7.2V8.7998H4V4.7998Z" fill="#4A4A4A"/>
<path d="M9.35986 4.7998H12.5599V8.7998H9.35986V4.7998Z" fill="#4A4A4A"/>
<path d="M14.3999 4.7998H17.5999V8.7998H14.3999V4.7998Z" fill="#4A4A4A"/>
</svg>
